# xmcd
#
# Track frame offsets:
#	150
#	17763
#	33320
#	48437
#	57328
#	73029
#	99166
#	114961
#	143555
#	158933
#	173676
#	193679
#	203254
#
# Disc length: 2792 seconds
#
# Revision: 2
# Processed by: cddbd v1.5.2PL0 Copyright (c) Steve Scherf et al.
# Submitted via: EZCDAudioConverter 2.1.7.1
#
DISCID=a10ae60d
DTITLE=V/A - The Wall Re-Built 1/2
DYEAR=2009
DGENRE=
TTITLE0=Sweet Billy Pilgrim - In The Flesh?
TTITLE1=Papercuts - The Thin Ice
TTITLE2=Ulver - Another Brick In The Wall (Part 1)
TTITLE3=Rafter - The Happiest Days Of Our Lives
TTITLE4=Slaraffenland - Another Brick In The Wall (Part 2)
TTITLE5=Woodpigeon - Mother
TTITLE6=Snowbird - Goodbye Blue Sky
TTITLE7=Astra - Empty Spaces
TTITLE8=The Amazing - Young Lust
TTITLE9=Gentle Good - One Of My Turns
TTITLE10=Three Trapped Tigers - Don't Leave Me Now
TTITLE11=Young Republic - Another Brick In The Wall (Part 3)
TTITLE12=Helado Negro - Goodbye Cruel World (Adios Mundo Maldito)
EXTD=
EXTT0=
EXTT1=
EXTT2=
EXTT3=
EXTT4=
EXTT5=
EXTT6=
EXTT7=
EXTT8=
EXTT9=
EXTT10=
EXTT11=
EXTT12=
PLAYORDER=
